<svg width="97" height="24" viewBox="0 0 97 24" fill="none" xmlns="http://www.w3.org/2000/svg">
<path d="M2.352 6.14L5.424 14.876L8.464 6.14H10.784L6.48 17.5H4.352L0.032 6.14H2.352ZM14.5828 17.66C13.6761 17.66 12.8921 17.4627 12.2308 17.068C11.5801 16.6733 11.0734 16.1507 10.7108 15.5C10.3481 14.8387 10.1668 14.124 10.1668 13.356C10.1668 12.5667 10.3428 11.8413 10.6948 11.18C11.0574 10.508 11.5694 9.97467 12.2308 9.58C12.8921 9.17467 13.6814 8.972 14.5988 8.972C15.5161 8.972 16.3001 9.17467 16.9508 9.58C17.6014 9.97467 18.0974 10.5027 18.4388 11.164C18.7908 11.8147 18.9668 12.5187 18.9668 13.276C18.9668 13.5533 18.9508 13.7933 18.9188 13.996H12.4388C12.4921 14.6467 12.7321 15.1587 13.1588 15.532C13.5961 15.9053 14.0974 16.092 14.6628 16.092C15.0894 16.092 15.4894 15.9907 15.8628 15.788C16.2468 15.5747 16.5081 15.2973 16.6468 14.956L18.4868 15.468C18.1774 16.108 17.6814 16.636 16.9988 17.052C16.3161 17.4573 15.5108 17.66 14.5828 17.66ZM12.3908 12.636H16.7748C16.7108 12.0067 16.4708 11.5 16.0548 11.116C15.6494 10.7213 15.1534 10.524 14.5668 10.524C13.9908 10.524 13.4948 10.7213 13.0788 11.116C12.6734 11.5 12.4441 12.0067 12.3908 12.636ZM25.2649 10.972C24.6142 10.972 24.0329 11.1 23.5209 11.356C23.0089 11.6013 22.6409 11.9587 22.4169 12.428V17.5H20.2729V9.116H22.2409V10.908C22.5289 10.332 22.9022 9.87867 23.3609 9.548C23.8302 9.21733 24.3209 9.036 24.8329 9.004C25.0569 9.004 25.2009 9.00933 25.2649 9.02V10.972ZM34.9688 17.068C34.6808 17.196 34.3234 17.324 33.8968 17.452C33.4808 17.58 33.0488 17.644 32.6008 17.644C32.2061 17.644 31.8434 17.5747 31.5128 17.436C31.1821 17.2973 30.9154 17.0787 30.7128 16.78C30.5208 16.4707 30.4248 16.0707 30.4248 15.58V10.764H29.3208V9.116H30.4248V6.396H32.5688V9.116H34.3288V10.764H32.5688V14.86C32.5688 15.148 32.6434 15.356 32.7928 15.484C32.9528 15.612 33.1448 15.676 33.3688 15.676C33.5928 15.676 33.8114 15.6387 34.0248 15.564C34.2381 15.4893 34.4088 15.4253 34.5368 15.372L34.9688 17.068ZM39.848 17.66C38.9307 17.66 38.1413 17.4627 37.48 17.068C36.8293 16.6627 36.328 16.1293 35.976 15.468C35.624 14.8067 35.448 14.092 35.448 13.324C35.448 12.5453 35.624 11.8253 35.976 11.164C36.3387 10.5027 36.8453 9.97467 37.496 9.58C38.1573 9.17467 38.9413 8.972 39.848 8.972C40.7547 8.972 41.5333 9.17467 42.184 9.58C42.8453 9.97467 43.352 10.5027 43.704 11.164C44.056 11.8253 44.232 12.5453 44.232 13.324C44.232 14.092 44.056 14.8067 43.704 15.468C43.352 16.1293 42.8453 16.6627 42.184 17.068C41.5333 17.4627 40.7547 17.66 39.848 17.66ZM37.656 13.324C37.656 13.8147 37.752 14.252 37.944 14.636C38.136 15.0093 38.3973 15.3027 38.728 15.516C39.0587 15.7293 39.432 15.836 39.848 15.836C40.2533 15.836 40.6213 15.7293 40.952 15.516C41.2827 15.292 41.544 14.9933 41.736 14.62C41.9387 14.236 42.04 13.7987 42.04 13.308C42.04 12.828 41.9387 12.4013 41.736 12.028C41.544 11.644 41.2827 11.3453 40.952 11.132C40.6213 10.908 40.2533 10.796 39.848 10.796C39.432 10.796 39.0587 10.908 38.728 11.132C38.3973 11.3453 38.136 11.644 37.944 12.028C37.752 12.4013 37.656 12.8333 37.656 13.324ZM45.1671 13.308C45.1671 12.508 45.3271 11.7773 45.6471 11.116C45.9671 10.4547 46.4098 9.932 46.9751 9.548C47.5405 9.164 48.1858 8.972 48.9111 8.972C49.5298 8.972 50.0845 9.12667 50.5751 9.436C51.0765 9.73467 51.4658 10.1187 51.7431 10.588V5.82H53.8871V15.1C53.8871 15.3347 53.9245 15.5 53.9991 15.596C54.0738 15.6813 54.2018 15.7347 54.3831 15.756V17.5C53.9991 17.5747 53.6951 17.612 53.4711 17.612C53.0871 17.612 52.7671 17.516 52.5111 17.324C52.2658 17.132 52.1271 16.8813 52.0951 16.572L52.0631 16.044C51.7538 16.5667 51.3325 16.9667 50.7991 17.244C50.2765 17.5213 49.7271 17.66 49.1511 17.66C48.3725 17.66 47.6845 17.468 47.0871 17.084C46.4898 16.6893 46.0205 16.1667 45.6791 15.516C45.3378 14.8547 45.1671 14.1187 45.1671 13.308ZM51.7431 14.428V12.428C51.5725 11.9587 51.2791 11.5693 50.8631 11.26C50.4471 10.9507 50.0205 10.796 49.5831 10.796C49.1458 10.796 48.7618 10.9187 48.4311 11.164C48.1005 11.3987 47.8445 11.7133 47.6631 12.108C47.4818 12.492 47.3911 12.908 47.3911 13.356C47.3911 13.8147 47.4925 14.236 47.6951 14.62C47.8978 14.9933 48.1698 15.292 48.5111 15.516C48.8631 15.7293 49.2631 15.836 49.7111 15.836C50.1165 15.836 50.5165 15.7027 50.9111 15.436C51.3165 15.1693 51.5938 14.8333 51.7431 14.428ZM59.8636 17.66C58.9463 17.66 58.157 17.4627 57.4956 17.068C56.845 16.6627 56.3436 16.1293 55.9916 15.468C55.6396 14.8067 55.4636 14.092 55.4636 13.324C55.4636 12.5453 55.6396 11.8253 55.9916 11.164C56.3543 10.5027 56.861 9.97467 57.5116 9.58C58.173 9.17467 58.957 8.972 59.8636 8.972C60.7703 8.972 61.549 9.17467 62.1996 9.58C62.861 9.97467 63.3676 10.5027 63.7196 11.164C64.0716 11.8253 64.2476 12.5453 64.2476 13.324C64.2476 14.092 64.0716 14.8067 63.7196 15.468C63.3676 16.1293 62.861 16.6627 62.1996 17.068C61.549 17.4627 60.7703 17.66 59.8636 17.66ZM57.6716 13.324C57.6716 13.8147 57.7676 14.252 57.9596 14.636C58.1516 15.0093 58.413 15.3027 58.7436 15.516C59.0743 15.7293 59.4476 15.836 59.8636 15.836C60.269 15.836 60.637 15.7293 60.9676 15.516C61.2983 15.292 61.5596 14.9933 61.7516 14.62C61.9543 14.236 62.0556 13.7987 62.0556 13.308C62.0556 12.828 61.9543 12.4013 61.7516 12.028C61.5596 11.644 61.2983 11.3453 60.9676 11.132C60.637 10.908 60.269 10.796 59.8636 10.796C59.4476 10.796 59.0743 10.908 58.7436 11.132C58.413 11.3453 58.1516 11.644 57.9596 12.028C57.7676 12.4013 57.6716 12.8333 57.6716 13.324Z" fill="#2A7AE4"/>
<g clip-path="url(#clip0_1_65)">
<path d="M76.9998 13L89.1698 13L83.5798 18.59L84.9998 20L92.9998 12L84.9998 4L83.5898 5.41L89.1698 11L76.9998 11L76.9998 13Z" fill="#2A7AE4"/>
</g>
<defs>
<clipPath id="clip0_1_65">
<rect width="24" height="24" fill="white" transform="translate(73)"/>
</clipPath>
</defs>
</svg>
